<?xml version="1.0" encoding="UTF-8"?>
<svg id="Layer_2" data-name="Layer 2" xmlns="http://www.w3.org/2000/svg" viewBox="0 0 84.52 33.85">
  <defs>
    <style>
      .cls-1 {
        fill: #5fad48;
      }

      .cls-1, .cls-2, .cls-3, .cls-4, .cls-5, .cls-6 {
        stroke-width: 0px;
      }

      .cls-2 {
        fill: #ed1c24;
      }

      .cls-3 {
        fill: #fff342;
      }

      .cls-4 {
        fill: #00aeef;
      }

      .cls-5 {
        fill: #fff;
      }

      .cls-6 {
        fill: #000100;
      }
    </style>
  </defs>
  <g id="_字" data-name="字">
    <g>
      <path class="cls-6" d="m26.9,31.68c.05,0,.08-.02.08-.08l-.69-7.49,1.95-.5.69,7.49c.13.74,0,1.38-.4,1.93-.4.55-.92.82-1.59.82h-.04l-26.71-.11-.19-11.16,1.99-.08.15,9.05,24.76.12Z"/>
      <path class="cls-6" d="m22.77,29.31H3.32l-.99-18.99,19.64.31c1.4.15,2.22,1.01,2.45,2.56l.61,13.49c.05.71-.14,1.34-.57,1.87-.48.53-1.04.79-1.68.76Z"/>
      <polygon class="cls-6" points="22.31 8.71 2.64 8.14 2.67 5.96 22.35 6.54 22.31 8.71"/>
      <polygon class="cls-1" points="4.43 12.54 4.58 15.1 13.22 15.32 13.14 12.69 4.43 12.54"/>
      <polygon class="cls-5" points="5.23 27.13 13.52 27.13 13.26 17.5 4.7 17.31 5.23 27.13"/>
      <path class="cls-5" d="m21.93,12.8l-6.8-.08.11,2.64,7.3.15-.15-2.22c-.03-.31-.18-.47-.46-.5Z"/>
      <path class="cls-5" d="m23.04,26.75l-.42-9.02-7.34-.19.23,9.59h7.26c.13,0,.19-.03.19-.08.08-.02.1-.13.08-.31Z"/>
      <path class="cls-6" d="m33.57,17.88l.04,1.22,11,.23-.08,1.99-10.89-.23.04,1.38,8.41.34-.08,2.02-15.7-.61.08-1.99,5.31.15-.04-1.34-6-.15.04-1.99,5.92.12-.08-1.18-6.34-.15-.61-15.97,18.87.42c1.4.15,2.18.93,2.33,2.33l.11,11.31c-.03.61-.25,1.16-.69,1.64-.43.43-.98.66-1.64.69h-.04l-9.97-.23Z"/>
      <polygon class="cls-5" points="26.7 3.75 26.77 6.27 31.36 6.42 31.28 3.9 26.7 3.75"/>
      <polygon class="cls-5" points="31.51 15.86 31.4 8.45 26.85 8.29 27.12 15.75 31.51 15.86"/>
      <path class="cls-5" d="m43.39,4.13l-10.09-.19.04,2.56,10.51.27-.08-2.25c0-.23-.13-.36-.38-.38Z"/>
      <path class="cls-2" d="m43.93,15.78l-.08-6.95-10.47-.34.15,7.41,10.05.23c.1,0,.19-.05.27-.15.05-.02.08-.09.08-.19Z"/>
      <path class="cls-6" d="m50.02,9.12l-1.72,2.9,12.23.65.84,12.34c-.03,1.1-.29,1.8-.8,2.1-.82.74-2.27.82-4.36.23l-.96-.23.5-1.95.99.23c1.83.38,2.67.45,2.52.19.1-.08.14-.22.12-.42l-.12-1.38-9.32-.31.53,5.5-1.99.19-1.49-15.02-2.14,3.59-1.72-.99,4.62-7.79-4.81-.19.12-1.99,5.85.23,1.34-2.14,1.68.99-.73,1.3,11.23.5-.12,1.99-12.3-.53Z"/>
      <polygon class="cls-5" points="48.99 14.08 49.37 17.9 58.88 18.09 58.65 14.54 48.99 14.08"/>
      <polygon class="cls-3" points="59.15 21.8 59.04 20.08 49.6 19.89 49.71 21.49 59.15 21.8"/>
      <path class="cls-6" d="m65.38,15.47l.31,1.95-2.29.38h-.34c-.51,0-.94-.15-1.3-.46-.48-.46-.69-1.06-.61-1.8l.42-5.96-4.37-.16.15-1.92,6.32.22-.53,7.99c-.03.08-.03.11,0,.11l2.25-.34Z"/>
      <polygon class="cls-6" points="60.33 3.94 62.09 3.06 63.47 5.81 61.67 6.69 60.33 3.94"/>
      <path class="cls-6" d="m66.26,0l17.69.12v1.99l-8.48-.04.23,2.18,8.83.15-.04,1.99-8.63-.12.15,1.68,6.15.15c.64,0,1.18.24,1.64.71.46.47.69,1.03.69,1.66l-.34,12.49c-.18,1.38-.96,2.14-2.33,2.29l-.08-.04-14.48-.53-.5-16.85,7.22.08-.15-1.68-7.87-.11.04-2.02,7.64.15-.15-2.22-7.22-.04V0Z"/>
      <path class="cls-4" d="m82.15,10.09l-13.33-.27.34,12.95,12.65.42c.2,0,.32-.09.34-.27l.34-12.49c-.03-.13-.08-.22-.15-.27,0-.05-.06-.08-.19-.08Z"/>
    </g>
  </g>
</svg>